<svg width="879" height="374" viewBox="0 0 879 374" fill="none" xmlns="http://www.w3.org/2000/svg">
<g clip-path="url(#clip0_1_19)">
<rect width="879" height="374" fill="#655DBB"/>
<g filter="url(#filter0_d_1_19)">
<path d="M628.936 323H557.525L513.567 210.012L515.313 323H449.139V77.9805H515.313L513.567 183.034L552.605 77.9805H622.43L569.585 196.206L628.936 323Z" fill="#BFACE2"/>
<path d="M628.936 323V326H633.653L631.653 321.728L628.936 323ZM557.525 323L554.729 324.088L555.473 326H557.525V323ZM513.567 210.012L516.363 208.924L510.568 210.058L513.567 210.012ZM515.313 323V326H518.36L518.313 322.954L515.313 323ZM449.139 323H446.139V326H449.139V323ZM449.139 77.9805V74.9805H446.139V77.9805H449.139ZM515.313 77.9805L518.313 78.0303L518.363 74.9805H515.313V77.9805ZM513.567 183.034L510.568 182.984L516.38 184.079L513.567 183.034ZM552.605 77.9805V74.9805H550.52L549.793 76.9355L552.605 77.9805ZM622.43 77.9805L625.169 79.2047L627.057 74.9805H622.43V77.9805ZM569.585 196.206L566.847 194.981L566.287 196.234L566.868 197.477L569.585 196.206ZM628.936 320H557.525V326H628.936V320ZM560.321 321.912L516.363 208.924L510.772 211.099L554.729 324.088L560.321 321.912ZM510.568 210.058L512.313 323.046L518.313 322.954L516.567 209.965L510.568 210.058ZM515.313 320H449.139V326H515.313V320ZM452.139 323V77.9805H446.139V323H452.139ZM449.139 80.9805H515.313V74.9805H449.139V80.9805ZM512.313 77.9306L510.568 182.984L516.567 183.084L518.313 78.0303L512.313 77.9306ZM516.38 184.079L555.418 79.0255L549.793 76.9355L510.755 181.989L516.38 184.079ZM552.605 80.9805H622.43V74.9805H552.605V80.9805ZM619.691 76.7563L566.847 194.981L572.324 197.43L625.169 79.2047L619.691 76.7563ZM566.868 197.477L626.219 324.272L631.653 321.728L572.303 194.934L566.868 197.477Z" fill="white"/>
</g>
<g filter="url(#filter1_d_1_19)">
<path d="M250.778 79L322.189 79L366.147 191.988L364.401 79L430.576 79V324.02L364.401 324.02L366.147 218.966L327.109 324.02L257.285 324.02L310.129 205.794L250.778 79Z" fill="#BFACE2"/>
<path d="M250.778 79V76H246.062L248.061 80.2718L250.778 79ZM322.189 79L324.985 77.9123L324.241 76H322.189V79ZM366.147 191.988L363.351 193.076L369.147 191.942L366.147 191.988ZM364.401 79V76L361.355 76L361.402 79.0463L364.401 79ZM430.576 79H433.576V76H430.576V79ZM430.576 324.02V327.02H433.576V324.02H430.576ZM364.401 324.02L361.402 323.97L361.351 327.02H364.401V324.02ZM366.147 218.966L369.146 219.016L363.335 217.921L366.147 218.966ZM327.109 324.02V327.02H329.194L329.921 325.065L327.109 324.02ZM257.285 324.02L254.546 322.795L252.658 327.02L257.285 327.02V324.02ZM310.129 205.794L312.868 207.019L313.428 205.766L312.846 204.523L310.129 205.794ZM250.778 82L322.189 82V76L250.778 76V82ZM319.394 80.0877L363.351 193.076L368.943 190.901L324.985 77.9123L319.394 80.0877ZM369.147 191.942L367.401 78.9537L361.402 79.0463L363.147 192.035L369.147 191.942ZM364.401 82L430.576 82V76L364.401 76V82ZM427.576 79V324.02L433.576 324.02V79L427.576 79ZM430.576 321.02L364.401 321.02V327.02L430.576 327.02V321.02ZM367.401 324.069L369.146 219.016L363.147 218.916L361.402 323.97L367.401 324.069ZM363.335 217.921L324.297 322.975L329.921 325.065L368.959 220.011L363.335 217.921ZM327.109 321.02L257.285 321.02V327.02L327.109 327.02V321.02ZM260.023 325.244L312.868 207.019L307.39 204.57L254.546 322.795L260.023 325.244ZM312.846 204.523L253.495 77.7282L248.061 80.2718L307.412 207.066L312.846 204.523Z" fill="white"/>
</g>
</g>
<defs>
<filter id="filter0_d_1_19" x="445.139" y="77.9805" width="187.797" height="253.02" filterUnits="userSpaceOnUse" color-interpolation-filters="sRGB">
<feFlood flood-opacity="0" result="BackgroundImageFix"/>
<feColorMatrix in="SourceAlpha" type="matrix" values="0 0 0 0 0 0 0 0 0 0 0 0 0 0 0 0 0 0 127 0" result="hardAlpha"/>
<feOffset dy="4"/>
<feGaussianBlur stdDeviation="2"/>
<feComposite in2="hardAlpha" operator="out"/>
<feColorMatrix type="matrix" values="0 0 0 0 0 0 0 0 0 0 0 0 0 0 0 0 0 0 0.25 0"/>
<feBlend mode="normal" in2="BackgroundImageFix" result="effect1_dropShadow_1_19"/>
<feBlend mode="normal" in="SourceGraphic" in2="effect1_dropShadow_1_19" result="shape"/>
</filter>
<filter id="filter1_d_1_19" x="246.778" y="79" width="187.797" height="253.02" filterUnits="userSpaceOnUse" color-interpolation-filters="sRGB">
<feFlood flood-opacity="0" result="BackgroundImageFix"/>
<feColorMatrix in="SourceAlpha" type="matrix" values="0 0 0 0 0 0 0 0 0 0 0 0 0 0 0 0 0 0 127 0" result="hardAlpha"/>
<feOffset dy="4"/>
<feGaussianBlur stdDeviation="2"/>
<feComposite in2="hardAlpha" operator="out"/>
<feColorMatrix type="matrix" values="0 0 0 0 0 0 0 0 0 0 0 0 0 0 0 0 0 0 0.25 0"/>
<feBlend mode="normal" in2="BackgroundImageFix" result="effect1_dropShadow_1_19"/>
<feBlend mode="normal" in="SourceGraphic" in2="effect1_dropShadow_1_19" result="shape"/>
</filter>
<clipPath id="clip0_1_19">
<rect width="879" height="374" fill="white"/>
</clipPath>
</defs>
</svg>
